<?xml version="1.0" encoding="utf-8"?>
<!-- Generator: Adobe Illustrator 23.0.1, SVG Export Plug-In . SVG Version: 6.00 Build 0)  -->
<svg version="1.1" id="Layer_1" focusable="false" xmlns="http://www.w3.org/2000/svg" xmlns:xlink="http://www.w3.org/1999/xlink"
	 x="0px" y="0px" viewBox="0 0 512 512" style="enable-background:new 0 0 512 512;" xml:space="preserve">
<path d="M259.1,259.8c0,0.5-0.4,0.8-0.8,0.8h-4.6c-0.5,0-0.7-0.4-0.7-0.8v-2.3h-9.2v6.9c0,1.3,1,2.3,2.3,2.3h19.9
	c1.2,0,2.3-1.1,2.3-2.3v-6.9h-9.2L259.1,259.8L259.1,259.8z M266,249.8h-3.8v-2.3c0-1.3-1.1-2.3-2.3-2.3h-7.7c-1.3,0-2.3,1-2.3,2.3
	v2.3H246c-1.3,0-2.3,1.1-2.3,2.3v3.8h24.6v-3.8C268.3,250.9,267.2,249.8,266,249.8z M259.1,249.8H253v-1.5h6.2V249.8z"/>
</svg>
