<?xml version="1.0" encoding="utf-8"?>
<!-- Generator: Adobe Illustrator 23.0.1, SVG Export Plug-In . SVG Version: 6.00 Build 0)  -->
<svg version="1.1" id="Layer_1" focusable="false" xmlns="http://www.w3.org/2000/svg" xmlns:xlink="http://www.w3.org/1999/xlink"
	 x="0px" y="0px" viewBox="0 0 576 512" style="enable-background:new 0 0 576 512;" xml:space="preserve">
<path d="M291.6,250.6l2.8,2.8c0.1,0.1,0.1,0.3,0,0.4l-6.8,6.8l-2.9,0.3c-0.4,0-0.7-0.3-0.7-0.7l0.3-2.9l6.8-6.8
	C291.3,250.5,291.5,250.5,291.6,250.6L291.6,250.6z M296.6,249.9l-1.5-1.5c-0.5-0.5-1.2-0.5-1.7,0l-1.1,1.1c-0.1,0.1-0.1,0.3,0,0.4
	l2.8,2.8c0.1,0.1,0.3,0.1,0.4,0l1.1-1.1C297.1,251.2,297.1,250.4,296.6,249.9z M291,258.9v3.2h-10v-10h7.2c0.1,0,0.2,0,0.3-0.1
	l1.3-1.3c0.2-0.2,0.1-0.6-0.3-0.6h-8.9c-0.8,0-1.5,0.7-1.5,1.5v11c0,0.8,0.7,1.5,1.5,1.5h11c0.8,0,1.5-0.7,1.5-1.5v-4.9
	c0-0.3-0.4-0.5-0.6-0.3l-1.3,1.3C291,258.7,291,258.8,291,258.9z"/>
</svg>
