<?xml version="1.0" encoding="utf-8"?>
<!-- Generator: Adobe Illustrator 23.0.1, SVG Export Plug-In . SVG Version: 6.00 Build 0)  -->
<svg version="1.1" id="Layer_1" focusable="false" xmlns="http://www.w3.org/2000/svg" xmlns:xlink="http://www.w3.org/1999/xlink"
	 x="0px" y="0px" viewBox="0 0 448 512" style="enable-background:new 0 0 448 512;" xml:space="preserve">
<path d="M232.4,251l-3.4-3.4c-0.4-0.4-0.8-0.6-1.4-0.6H217c-1.1,0-1.9,0.9-1.9,1.9V263c0,1.1,0.9,1.9,1.9,1.9H231
	c1.1,0,1.9-0.9,1.9-1.9v-10.7C233,251.8,232.8,251.3,232.4,251L232.4,251z M224,262.4c-1.4,0-2.6-1.1-2.6-2.6s1.1-2.6,2.6-2.6
	s2.6,1.1,2.6,2.6S225.4,262.4,224,262.4z M227.8,250.2v4c0,0.3-0.2,0.5-0.5,0.5h-9.3c-0.3,0-0.5-0.2-0.5-0.5v-4.2
	c0-0.3,0.2-0.5,0.5-0.5h9.1c0.1,0,0.2,0.1,0.3,0.1l0.1,0.1C227.8,250,227.8,250.1,227.8,250.2z"/>
</svg>
