<?xml version="1.0" encoding="utf-8"?>
<!-- Generator: Adobe Illustrator 23.0.1, SVG Export Plug-In . SVG Version: 6.00 Build 0)  -->
<svg version="1.1" id="Layer_1" focusable="false" xmlns="http://www.w3.org/2000/svg" xmlns:xlink="http://www.w3.org/1999/xlink"
	 x="0px" y="0px" viewBox="0 0 512 512" style="enable-background:new 0 0 512 512;" xml:space="preserve">
<style type="text/css">
	.st0{fill:#FFFFFF;}
</style>
<path class="st0" d="M241.3,221.2c-0.6-0.6-1.5-0.6-2.2,0l0,0l-8,8l-2.9-2.8c-0.6-0.6-1.5-0.6-2.2,0l0,0l-2,2
	c-0.6,0.6-0.6,1.5,0,2.2l0,0l6,5.9c0.6,0.6,1.6,0.6,2.3,0l2-2l9.1-9.1c0.6-0.6,0.6-1.5,0-2.2L241.3,221.2z M241.3,241.2
	c-0.6-0.6-1.5-0.6-2.2,0l0,0l-8,8l-2.9-2.8c-0.6-0.6-1.5-0.6-2.2,0l0,0l-2,2c-0.6,0.6-0.6,1.5,0,2.2l0,0l5.9,6
	c0.6,0.6,1.6,0.6,2.3,0l2-2l9.1-9.1c0.6-0.6,0.6-1.5,0-2.2L241.3,241.2z M231.8,263.1c-3.3,0-6.1,2.7-6.1,6c0,3.3,2.8,6,6.1,6
	c3.3,0,6-2.7,6-6C237.8,265.8,235.1,263.1,231.8,263.1z M286.2,265.1H250c-1.1,0-2,0.9-2,2v4c0,1.1,0.9,2,2,2h36.3c1.1,0,2-0.9,2-2
	v-4C288.2,266,287.3,265.1,286.2,265.1z M286.2,224.8H250c-1.1,0-2,0.9-2,2v4.1c0,1.1,0.9,2,2,2h36.3c1.1,0,2-0.9,2-2v-4.1
	C288.2,225.7,287.3,224.8,286.2,224.8z M286.2,244.9H250c-1.1,0-2,0.9-2,2v4.1c0,1.1,0.9,2,2,2h36.3c1.1,0,2-0.9,2-2v-4.1
	C288.2,245.8,287.3,244.9,286.2,244.9z"/>
</svg>
