<?xml version="1.0" encoding="utf-8"?>
<!-- Generator: Adobe Illustrator 23.0.1, SVG Export Plug-In . SVG Version: 6.00 Build 0)  -->
<svg version="1.1" id="Layer_1" focusable="false" xmlns="http://www.w3.org/2000/svg" xmlns:xlink="http://www.w3.org/1999/xlink"
	 x="0px" y="0px" viewBox="0 0 576 512" style="enable-background:new 0 0 576 512;" xml:space="preserve">
<path d="M287.6,250.6l-9.2,7.6v8.2c0,0.5,0.4,0.8,0.8,0.8h5.6c0.5,0,0.8-0.4,0.8-0.8v-4.8c0-0.5,0.4-0.8,0.8-0.8h3.2
	c0.4,0,0.8,0.4,0.8,0.8v4.8c0,0.5,0.4,0.8,0.8,0.8l0,0h5.6c0.4,0,0.8-0.4,0.8-0.8v-8.2l-9.2-7.6
	C288.1,250.4,287.8,250.4,287.6,250.6L287.6,250.6z M302.2,255.8l-4.2-3.4v-6.9c0-0.4-0.3-0.6-0.6-0.6h-2.8c-0.4,0-0.6,0.3-0.6,0.6
	v3.6l-4.5-3.7c-0.9-0.8-2.1-0.8-3.1,0l-12.6,10.4c-0.3,0.2-0.3,0.6-0.1,0.9l0,0l1.3,1.5c0.2,0.3,0.6,0.3,0.9,0.1l0,0l11.8-9.7
	c0.3-0.2,0.6-0.2,0.8,0l11.8,9.7c0.3,0.2,0.6,0.2,0.9-0.1l0,0l1.3-1.5C302.4,256.3,302.4,256,302.2,255.8L302.2,255.8L302.2,255.8z"
	/>
</svg>
