<?xml version="1.0" encoding="utf-8"?>
<!-- Generator: Adobe Illustrator 23.0.1, SVG Export Plug-In . SVG Version: 6.00 Build 0)  -->
<svg version="1.1" id="Layer_1" focusable="false" xmlns="http://www.w3.org/2000/svg" xmlns:xlink="http://www.w3.org/1999/xlink"
	 x="0px" y="0px" viewBox="0 0 512 512" style="enable-background:new 0 0 512 512;" xml:space="preserve">
<style type="text/css">
	.st0{fill:#FFFFFF;}
</style>
<path class="st0" d="M261.8,256.7l-6.7,6.7c-0.6,0.6-1.6,0.2-1.6-0.7v-3.8H248c-0.5,0-1-0.4-1-1v-3.8c0-0.5,0.4-1,1-1h5.4v-3.8
	c0-0.8,1-1.3,1.6-0.7l6.7,6.7C262.2,255.7,262.2,256.3,261.8,256.7z M249.6,263.2v-1.6c0-0.3-0.2-0.5-0.5-0.5h-3.4
	c-0.7,0-1.3-0.6-1.3-1.3v-7.7c0-0.7,0.6-1.3,1.3-1.3h3.4c0.3,0,0.5-0.2,0.5-0.5v-1.6c0-0.3-0.2-0.5-0.5-0.5h-3.4
	c-2.1,0-3.8,1.7-3.8,3.8v7.7c0,2.1,1.7,3.8,3.8,3.8h3.4C249.4,263.7,249.6,263.5,249.6,263.2z"/>
</svg>
