<?xml version="1.0" encoding="utf-8"?>
<!-- Generator: Adobe Illustrator 23.0.1, SVG Export Plug-In . SVG Version: 6.00 Build 0)  -->
<svg version="1.1" id="Layer_1" focusable="false" xmlns="http://www.w3.org/2000/svg" xmlns:xlink="http://www.w3.org/1999/xlink"
	 x="0px" y="0px" viewBox="0 0 512 512" style="enable-background:new 0 0 512 512;" xml:space="preserve">
<path d="M260,251.7c-1.1-1-2.5-1.6-4-1.6c-2.7,0-5.1,1.9-5.7,4.4c0,0.2-0.2,0.3-0.4,0.3h-2c-0.3,0-0.5-0.2-0.4-0.5
	c0.8-4,4.3-7.1,8.5-7.1c2.3,0,4.4,0.9,6,2.4l1.3-1.3c0.5-0.5,1.4-0.2,1.4,0.6v4.7c0,0.5-0.4,0.8-0.8,0.8h-4.7
	c-0.7,0-1.1-0.9-0.6-1.4L260,251.7z M248.2,257.4h4.7c0.7,0,1.1,0.9,0.6,1.4l-1.5,1.5c1.1,1,2.5,1.6,4,1.6c2.7,0,5.1-1.9,5.7-4.4
	c0-0.2,0.2-0.3,0.4-0.3h2c0.3,0,0.5,0.2,0.4,0.5c-0.8,4-4.3,7.1-8.5,7.1c-2.3,0-4.4-0.9-6-2.4l-1.3,1.3c-0.5,0.5-1.4,0.2-1.4-0.6
	v-4.7C247.3,257.8,247.7,257.4,248.2,257.4z"/>
</svg>
