<?xml version="1.0" encoding="utf-8"?>
<!-- Generator: Adobe Illustrator 23.0.1, SVG Export Plug-In . SVG Version: 6.00 Build 0)  -->
<svg version="1.1" id="Layer_1" xmlns="http://www.w3.org/2000/svg" xmlns:xlink="http://www.w3.org/1999/xlink" x="0px" y="0px"
	 viewBox="0 0 448 512" style="enable-background:new 0 0 448 512;" xml:space="preserve">
<title>trash-solid</title>
<path d="M230.2,249.3h-3.6l-0.3-0.6c-0.1-0.2-0.4-0.4-0.6-0.4h-3.4c-0.3,0-0.5,0.2-0.6,0.4l-0.3,0.6h-3.6c-0.3,0-0.5,0.2-0.5,0.5v1
	c0,0.3,0.2,0.5,0.5,0.5h12.5c0.3,0,0.5-0.2,0.5-0.5v-1C230.7,249.5,230.5,249.3,230.2,249.3z M218.9,262.3c0,0.8,0.7,1.3,1.4,1.3
	h7.4c0.8,0,1.4-0.6,1.4-1.3l0.6-10.2h-11.5L218.9,262.3z"/>
</svg>
