<?xml version="1.0" encoding="utf-8"?>
<!-- Generator: Adobe Illustrator 23.0.1, SVG Export Plug-In . SVG Version: 6.00 Build 0)  -->
<svg version="1.1" id="Layer_1" focusable="false" xmlns="http://www.w3.org/2000/svg" xmlns:xlink="http://www.w3.org/1999/xlink"
	 x="0px" y="0px" viewBox="0 0 640 512" style="enable-background:new 0 0 640 512;" xml:space="preserve">
<style type="text/css">
	.st0{fill:#FFFFFF;}
</style>
<path class="st0" d="M309.2,254.5c1.7,0,3.1-1.4,3.1-3.1c0-1.7-1.4-3.1-3.1-3.1s-3.1,1.4-3.1,3.1
	C306.1,253.1,307.5,254.5,309.2,254.5z M330.7,254.5c1.7,0,3.1-1.4,3.1-3.1c0-1.7-1.4-3.1-3.1-3.1c-1.7,0-3.1,1.4-3.1,3.1
	C327.7,253.1,329,254.5,330.7,254.5z M332.3,256h-3.1c-0.8,0-1.6,0.4-2.2,0.9c1.9,1.1,3.3,3,3.6,5.2h3.2c0.8,0,1.5-0.7,1.5-1.5v-1.5
	C335.3,257.4,334,256,332.3,256z M320,256c3,0,5.4-2.4,5.4-5.4c0-3-2.4-5.4-5.4-5.4s-5.4,2.4-5.4,5.4C314.6,253.6,317,256,320,256z
	 M323.7,257.5h-0.4c-1,0.5-2.1,0.8-3.3,0.8s-2.3-0.3-3.3-0.8h-0.4c-3,0-5.5,2.5-5.5,5.5v1.4c0,1.3,1,2.3,2.3,2.3h13.8
	c1.3,0,2.3-1,2.3-2.3v-1.4C329.2,260,326.7,257.5,323.7,257.5z M312.9,256.9c-0.6-0.6-1.3-0.9-2.2-0.9h-3.1c-1.7,0-3.1,1.4-3.1,3.1
	v1.5c0,0.8,0.7,1.5,1.5,1.5h3.2C309.6,259.9,311,258,312.9,256.9L312.9,256.9z"/>
</svg>
